<svg xmlns="http://www.w3.org/2000/svg" xmlns:xlink="http://www.w3.org/1999/xlink" id="Calque_1" width="16" height="16" x="0" y="0" enable-background="new 0 0 16 16" version="1.1" viewBox="0 0 16 16" xml:space="preserve"><g><path d="M6.045,2v0.992L4.785,3v5.172c0,0.859,0.243,1.512,0.727,1.957s1.124,0.668,1.918,0.668c0.836,0,1.509-0.221,2.019-0.664 c0.511-0.442,0.766-1.096,0.766-1.961V3l-1.26-0.008V2h2.784H13v0.992L11.739,3v5.172c0,1.234-0.398,2.181-1.195,2.84 C9.747,11.671,8.709,12,7.43,12c-1.242,0-2.248-0.329-3.017-0.988c-0.769-0.659-1.152-1.605-1.152-2.84V3L2,2.992V2h1.261H6.045z"/></g><rect width="11" height="1" x="2" y="13"/></svg>